<?xml version="1.0" encoding="UTF-8"?>
<svg width="247px" height="254px" viewBox="0 0 247 254" version="1.1" xmlns="http://www.w3.org/2000/svg" xmlns:xlink="http://www.w3.org/1999/xlink">
    <!-- Generator: Sketch 49 (51002) - http://www.bohemiancoding.com/sketch -->
    <title>Group 6</title>
    <desc>Created with Sketch.</desc>
    <defs>
        <linearGradient x1="-68.052615%" y1="-56.8988032%" x2="100%" y2="114.475903%" id="linearGradient-1">
            <stop stop-color="#0244FF" offset="0%"></stop>
            <stop stop-color="#0188FF" offset="100%"></stop>
        </linearGradient>
        <filter x="0.0%" y="0.0%" width="100.0%" height="100.0%" filterUnits="objectBoundingBox" id="filter-2">
            <feGaussianBlur stdDeviation="0" in="SourceGraphic"></feGaussianBlur>
        </filter>
        <linearGradient x1="20.86634%" y1="61.2585427%" x2="138.473577%" y2="143.375737%" id="linearGradient-3">
            <stop stop-color="#FF0000" offset="0%"></stop>
            <stop stop-color="#FF0101" offset="100%"></stop>
        </linearGradient>
        <filter x="-65.6%" y="-65.5%" width="231.1%" height="231.0%" filterUnits="objectBoundingBox" id="filter-4">
            <feGaussianBlur stdDeviation="11.1268077" in="SourceGraphic"></feGaussianBlur>
        </filter>
        <linearGradient x1="16.4343273%" y1="23.4531606%" x2="100%" y2="114.475903%" id="linearGradient-5">
            <stop stop-color="#FF0000" offset="0%"></stop>
            <stop stop-color="#D90000" offset="100%"></stop>
        </linearGradient>
    </defs>
    <g id="app" stroke="none" stroke-width="1" fill="none" fill-rule="evenodd">
        <g id="1" transform="translate(-93.000000, -155.000000)">
            <g id="Group-6" transform="translate(93.000000, 155.000000)">
                <path d="M89.1377983,166.718094 L89.1377983,152.973571 L81.1267652,147.373819 L79.6147837,145.401095 L77.3387888,142.045735 L75.61081,138.295336 L74.1278339,134.15422 L73.1583144,130.622944 L72.4319461,124.382567 L72.4319461,121.248799 L69.2696833,120.677708 L67.2468766,120.213625 C67.2468766,116.776718 67.2468766,113.039498 67.2468766,109.001963 C67.2468766,104.964429 68.872376,102.530118 72.123375,101.699033 L72.123375,109.830374 C72.1486274,112.197579 72.4936072,113.759243 73.1583144,114.515367 C73.8230215,115.271491 75.5010292,116.011035 78.1923375,116.733999 L89.6138721,116.733999 C91.9429998,115.810065 93.5131844,114.939417 94.3244259,114.122056 C95.1356674,113.304695 95.8494614,111.874134 96.465808,109.830374 L98.1188189,99.0228738 L104.922625,99.0228738 L106.036559,106.291878 L107.22527,112.511033 C108.006014,114.32561 108.7342,115.458034 109.409829,115.908307 C110.085457,116.35858 111.46944,116.63381 113.561776,116.733999 L123.570687,116.471055 L127.451995,115.908307 L129.517241,114.515367 L131.105117,112.511033 L131.800174,109.830374 L131.493141,99.0228738 L131.493141,75.2235129 L126.693568,78.0394387 L121.710171,78.0394387 L76.3855762,78.0394387 L76.3855762,98.2849818 L72.123375,99.0228738 L78.1923375,98.2849818 L134.528342,98.2849818 C136.182852,98.5936976 137.360135,98.9688121 138.060192,99.4103253 C138.76025,99.8518385 139.387391,100.614741 139.941616,101.699033 L139.941616,109.830374 L139.941616,114.515367 L138.880245,119.216498 L135.886272,120.650898 L131.493141,121.248799 L131.105117,125.43332 L129.517241,131.589115 L126.693568,140.218583 L121.710171,147.373819 L118.118249,151.409713 L118.118249,164.297501 L101.771298,174.783287 L89.1377983,166.718094 Z" id="Path-24" fill="#ECECEC"></path>
                <path d="M29.1860501,237.401652 L35.0336592,193.945509 C35.5429969,190.160398 38.2475727,187.037233 41.9210359,185.992169 L71.9306876,177.454718" id="Path-12" stroke="#4A4A4A" stroke-width="1.20000005"></path>
                <path d="M173.608375,236.829408 L168.378061,194.31411 C167.907367,190.488011 165.19367,187.31456 161.487029,186.2556 L130.8053,177.490058" id="Path-13" stroke="#4A4A4A" stroke-width="1.20000005"></path>
                <path d="M126.391283,237.206826 L76.8828626,237.206826 C74.2318957,237.206826 72.0828624,235.057793 72.0828624,232.406826 L72.0828624,178.888876 C72.0828624,177.657399 72.5561757,176.473029 73.4049056,175.580732 L81.6706561,166.890686 C83.2445027,165.236051 85.7661837,164.919302 87.7003594,166.133293 L99.0033804,173.227667 C100.605753,174.233402 102.649421,174.204116 104.222318,173.152881 L114.624932,166.200364 C116.505037,164.943808 119.007184,165.16993 120.631556,166.743188 L129.730715,175.556029 C130.664274,176.460212 131.191284,177.70431 131.191284,179.003955 L131.191284,232.406826 C131.191284,235.057793 129.04225,237.206826 126.391283,237.206826 Z" id="Path-14" stroke="#4A4A4A" stroke-width="1.20000005" fill-opacity="0.067113904" fill="#EEEEEE"></path>
                <path d="M84.4525116,165.952545 L84.4525116,150.466093" id="Path-15" stroke="#4A4A4A" stroke-width="1.20000005"></path>
                <path d="M65.0486234,99.604999 L67.8936192,98.4310644 L71.8402536,98.4310644 L71.8402536,77.9173868 L126.19788,77.9173868 L131.768241,74.1829359 L131.768241,98.5907988 C132.987433,98.5907988 133.939167,98.5907988 134.623444,98.5907988 C135.307721,98.5907988 136.579758,98.5907988 138.439557,98.5907988 L140.393809,86.8939674 L141.08337,77.9173868 L140.393809,75.0219163 L138.439557,71.7955103 L136.445261,69.912111 C138.088447,68.1883124 139.206629,66.7351667 139.799807,65.5526739 C140.392985,64.3701812 140.820839,62.7413234 141.08337,60.6661004 L141.08337,52.0147132 L81.4265159,52.0147132 L78.0686257,52.7158839 L74.9544396,54.5520706 L72.5221596,57.7759246 L71.8402536,68.6603395 L69.5247076,68.6603395 L66.0554263,70.4963829 L63.8376641,71.7955103 L62.5283337,74.1829359 L62.0928614,77.0376251 L62.8752353,86.1667289 L65.0486234,99.604999 Z" id="Path-25" fill="url(#linearGradient-1)"></path>
                <polyline id="Path-15" stroke="#4A4A4A" stroke-width="1.20000005" points="118.117252 164.317483 118.117252 165.515148 118.117252 150.6745"></polyline>
                <path d="M67.4899878,98.6556387 L136.420331,98.6556387 C138.837806,98.9899358 140.046543,100.870969 140.046543,104.298738 C140.046543,109.440391 140.046543,112.036381 140.046543,115.250332 C140.046543,115.250332 140.046543,115.250332 140.046543,115.250332 L140.046543,115.250332 C140.046543,118.34118 137.540915,120.846808 134.450067,120.846808 L131.122502,120.846808 C129.824562,143.881052 120.008097,155.398174 101.673109,155.398174 C86.6579237,155.398174 77.3617143,147.674142 73.7844808,132.226078 C73.2572052,129.94907 72.745856,126.155981 72.2504332,120.846808 C64.459603,120.846808 62.4789083,118.981316 62.4789083,115.250332 C62.4789083,109.653856 62.4789083,109.207357 62.4789083,104.448743 C62.4789083,101.276334 64.1492681,99.3452991 67.4899878,98.6556387 Z" id="Path-16" stroke="#4A4A4A" stroke-width="1.20000005"></path>
                <path d="M131.548919,74.2962139 C131.548919,93.5954446 131.548919,105.297807 131.548919,109.4033 C131.548919,113.508793 129.103947,115.928974 124.214003,116.663845 L113.437184,116.663845 C109.638613,116.276655 107.401981,114.254972 106.727288,110.598796 C106.052595,106.94262 105.443673,103.035363 104.900521,98.8770254 L97.9057163,98.8770254 C97.3104222,104.028228 96.7281637,107.935484 96.1589408,110.598796 C95.589718,113.262107 93.3979533,115.28379 89.5836467,116.663845 L79.1794303,116.663845 C74.4356433,116.663845 72.0637497,114.243663 72.0637497,109.4033 C72.0637497,104.562936 72.0637497,94.0993837 72.0637497,78.0126415 C103.328372,78.2056828 120.505594,78.2056828 123.595414,78.0126415 C126.685234,77.8196002 129.336402,76.580791 131.548919,74.2962139 Z" id="Path-17" stroke="#4A4A4A" stroke-width="1.20000005"></path>
                <path d="M64.9199089,99.4068608 C62.7164242,88.4187149 61.8359516,80.7139976 62.278491,76.2927089 C62.7210305,71.8714202 65.9788552,69.3152747 72.0519653,68.6242724 L72.0519653,59.1864051 C73.7333718,54.3799515 77.0338124,51.9767246 81.9532869,51.9767246 C86.8727614,51.9767246 106.480153,51.9767246 140.775462,51.9767246 C140.775462,53.6175378 140.775462,56.1954301 140.775462,59.7104015 C140.775462,63.2253729 139.368309,66.6495386 136.554003,69.9828986 C138.64899,71.5700268 140.056143,73.6732969 140.775462,76.2927089 C141.494781,78.912121 140.722299,86.6168383 138.458016,99.4068608" id="Path-18" stroke="#4A4A4A" stroke-width="1.20000005"></path>
                <path d="M149.212807,192.666047 L149.212807,192.666047 C149.544816,192.666047 149.813963,192.935194 149.813963,193.267203 L149.813963,200.81399 C149.813963,201.146 149.544816,201.415146 149.212807,201.415146 L149.212807,201.415146 C148.880798,201.415146 148.611651,201.146 148.611651,200.81399 L148.611651,193.267203 C148.611651,192.935194 148.880798,192.666047 149.212807,192.666047 Z" id="Path-19" fill="#4A4A4A" fill-rule="nonzero"></path>
                <rect id="Rectangle-3" stroke="#4A4A4A" stroke-width="1.20000005" x="137.021965" y="205.524051" width="24.0485549" height="16.8379746" rx="1.20000005"></rect>
                <path d="M141.624672,211.966362 L141.624672,211.966362 C141.624672,211.634292 141.893868,211.365096 142.225938,211.365096 L156.302456,211.365096 C156.634526,211.365096 156.903722,211.634292 156.903722,211.966362 L156.903722,211.966362 C156.903722,212.298432 156.634526,212.567628 156.302456,212.567628 L142.225938,212.567628 C141.893868,212.567628 141.624672,212.298432 141.624672,211.966362 Z" id="Path-20" fill="#4A4A4A" fill-rule="nonzero"></path>
                <path d="M141.749966,216.663633 L141.749966,216.663633 C141.749966,216.331563 142.019162,216.062367 142.351232,216.062367 L152.355132,216.062367 C152.687202,216.062367 152.956398,216.331563 152.956398,216.663633 L152.956398,216.663633 C152.956398,216.995703 152.687202,217.264899 152.355132,217.264899 L142.351232,217.264899 C142.019162,217.264899 141.749966,216.995703 141.749966,216.663633 Z" id="Path-21" fill="#4A4A4A" fill-rule="nonzero"></path>
                <path d="M94.6383706,184.525235 L108.196807,184.525235 C109.52229,184.525235 110.596807,185.599751 110.596807,186.925235 C110.596807,187.271376 110.521933,187.613422 110.377322,187.927908 L107.739465,193.664461 C107.559538,194.055749 107.488216,194.488243 107.53298,194.916585 L111.665106,234.457009 C111.802874,235.775314 110.84586,236.955693 109.527556,237.093461 C109.444688,237.102121 109.361425,237.10646 109.278105,237.10646 L93.3654431,237.10646 C92.0399596,237.10646 90.965443,236.031943 90.965443,234.70646 C90.965443,234.618593 90.9702684,234.530793 90.9798973,234.443455 L95.3362285,194.930044 C95.3843876,194.493225 95.3116838,194.051568 95.1260455,193.653236 L92.4630078,187.939038 C91.9030997,186.737619 92.4231475,185.30978 93.6245672,184.749872 C93.9420598,184.601908 94.2880924,184.525235 94.6383706,184.525235 Z" id="Path-22" stroke="#4A4A4A" stroke-width="1.20000005"></path>
                <path d="M95.3100038,188.088608 L113.075031,188.088608 C113.737773,188.088608 114.275031,188.625866 114.275031,189.288608 C114.275031,189.450389 114.242318,189.610501 114.178858,189.759316 L110.782539,197.723791 C110.704371,197.907098 110.673084,198.106987 110.691503,198.305413 L114.769618,242.238678 C114.830874,242.898583 114.345573,243.483199 113.685668,243.544455 C113.648796,243.547878 113.611786,243.549592 113.574755,243.549592 L94.9399079,243.549592 C94.2771662,243.549592 93.7399079,243.012334 93.7399079,242.349592 C93.7399079,242.303875 93.7425204,242.258196 93.7477326,242.212777 L98.777029,198.388495 C98.805783,198.137939 98.7548642,197.884692 98.6315041,197.66472 L94.2633534,189.875568 C93.9391839,189.297519 94.1449939,188.566127 94.723043,188.241957 C94.9023329,188.141412 95.1044453,188.088608 95.3100038,188.088608 Z" id="Path-23" fill="url(#linearGradient-1)" filter="url(#filter-2)"></path>
                <path d="M21.5247358,156.65408 L37.4032205,156.65408 C37.927726,156.65408 38.3914585,156.313435 38.5483081,155.812931 L41.4246058,146.634726 C41.622794,146.002312 42.2961305,145.650302 42.928545,145.84849 C43.3065511,145.966951 43.6017406,146.264332 43.7174032,146.643203 L49.5914679,165.884664 C49.7849745,166.518527 50.4556898,166.875506 51.0895524,166.681999 C51.4579896,166.569522 51.750029,166.287003 51.8746501,165.922494 L54.7658644,157.465876 C54.9318627,156.980341 55.38821,156.65408 55.9013369,156.65408 L70.8874564,156.65408" id="Path-26" stroke="#4A4A4A" stroke-width="1.20000005"></path>
                <path d="M179.251687,165.935476 L179.251687,195.938703 C179.251687,200.919753 183.288888,204.957691 188.269028,204.957691 L205.007116,204.957691 C209.987256,204.957691 214.024457,200.919753 214.024457,195.938703 L214.024457,151.022221 C214.024457,146.041172 209.987256,142.003234 205.007116,142.003234 L186.105797,142.003234 C182.320376,142.003234 179.251687,145.072484 179.251687,148.858596 C179.251687,152.583779 176.724308,155.718553 173.291026,156.641149 C176.808761,158.256334 179.251687,161.810565 179.251687,165.935476 Z M169.032033,156.916489 L132.129918,156.916489 C131.797848,156.916489 131.528653,156.647293 131.528653,156.315223 L131.528653,156.315223 C131.528653,155.983153 131.797848,155.713957 132.129918,155.713957 L171.195264,155.713957 C174.980685,155.713957 178.049374,152.644707 178.049374,148.858596 C178.049374,144.408344 181.656358,140.800702 186.105797,140.800702 L205.007116,140.800702 C210.651275,140.800702 215.226769,145.377032 215.226769,151.022221 L215.226769,195.938703 C215.226769,201.583892 210.651275,206.160222 205.007116,206.160222 L188.269028,206.160222 C182.624869,206.160222 178.049374,201.583892 178.049374,195.938703 L178.049374,165.935476 C178.049374,160.954427 174.012173,156.916489 169.032033,156.916489 Z" id="Path-27" fill="#4A4A4A" fill-rule="nonzero"></path>
                <path d="M143.277162,143.659441 L143.277162,143.659441 C143.036808,143.430331 143.027659,143.049768 143.256725,142.809372 L154.39831,131.11674 C155.996502,129.439505 156.888022,127.211423 156.888022,124.894472 L156.888022,62.2431942 C156.888022,56.5980051 161.463517,52.0216752 167.107675,52.0216752 L214.349717,52.0216752 C219.993875,52.0216752 224.56937,56.5980051 224.56937,62.2431942 L224.56937,151.944661 C224.56937,154.801474 222.253888,157.117378 219.397597,157.117378 L215.684127,157.117378 C215.078182,157.117378 214.473437,157.063477 213.87704,156.956311 L214.089639,155.772729 C214.615871,155.867287 215.149469,155.914847 215.684127,155.914847 L219.397597,155.914847 C221.58987,155.914847 223.367058,154.137334 223.367058,151.944661 L223.367058,62.2431942 C223.367058,57.262145 219.329857,53.2242068 214.349717,53.2242068 L167.107675,53.2242068 C162.127535,53.2242068 158.090334,57.262145 158.090334,62.2431942 L158.090334,124.894472 C158.090334,127.52035 157.079944,130.04551 155.268661,131.946376 L144.127075,143.639008 C143.898063,143.879347 143.51758,143.888529 143.277241,143.659517 C143.277214,143.659492 143.277188,143.659466 143.277162,143.659441 Z" id="Path-28" fill="#4A4A4A" fill-rule="nonzero"></path>
                <path d="M227.693417,56.6852114 L162.785468,56.6852114 C162.233184,56.6852114 161.785468,57.1329266 161.785468,57.6852114 L161.785468,133.586691 C161.785468,133.850813 161.680977,134.104209 161.494806,134.29156 L137.185695,158.75476 C136.796406,159.146516 136.798406,159.779677 137.190163,160.168966 C137.377514,160.355137 137.63091,160.459629 137.895032,160.459629 L227.693417,160.459629 C228.245702,160.459629 228.693417,160.011914 228.693417,159.459629 L228.693417,57.6852114 C228.693417,57.1329266 228.245702,56.6852114 227.693417,56.6852114 Z" id="Path-29" fill="#E2E2E2" opacity="0.314311594"></path>
                <path d="M209.570016,64.925849 L209.570016,64.925849 C210.234034,64.925849 210.772328,65.4641424 210.772328,66.1281611 L210.772328,76.9658168 C210.772328,77.6298355 210.234034,78.168129 209.570016,78.168129 L209.570016,78.168129 C208.905997,78.168129 208.367704,77.6298355 208.367704,76.9658168 L208.367704,66.1281611 C208.367704,65.4641424 208.905997,64.925849 209.570016,64.925849 Z" id="Path-30" fill="#4A4A4A" fill-rule="nonzero" transform="translate(209.570016, 71.546989) rotate(-270.000000) translate(-209.570016, -71.546989) "></path>
                <path d="M204.159611,71.539773 L204.159611,71.539773 C204.82363,71.539773 205.361923,72.0780665 205.361923,72.7420852 L205.361923,94.4025257 C205.361923,95.0665444 204.82363,95.6048378 204.159611,95.6048378 L204.159611,95.6048378 C203.495592,95.6048378 202.957299,95.0665444 202.957299,94.4025257 L202.957299,72.7420852 C202.957299,72.0780665 203.495592,71.539773 204.159611,71.539773 Z" id="Path-30" fill="#4A4A4A" fill-rule="nonzero" transform="translate(204.159611, 83.572305) rotate(-270.000000) translate(-204.159611, -83.572305) "></path>
                <path d="M198.749206,78.1536971 L198.749206,78.1536971 C199.413225,78.1536971 199.951519,78.6919905 199.951519,79.3560092 L199.951519,111.839235 C199.951519,112.503253 199.413225,113.041547 198.749206,113.041547 L198.749206,113.041547 C198.085188,113.041547 197.546894,112.503253 197.546894,111.839235 L197.546894,79.3560092 C197.546894,78.6919905 198.085188,78.1536971 198.749206,78.1536971 Z" id="Path-30" fill="#4A4A4A" fill-rule="nonzero" transform="translate(198.749206, 95.597622) rotate(-270.000000) translate(-198.749206, -95.597622) "></path>
                <path d="M193.338802,84.7676211 L193.338802,84.7676211 C194.00282,84.7676211 194.541114,85.3059146 194.541114,85.9699333 L194.541114,129.275943 C194.541114,129.939962 194.00282,130.478256 193.338802,130.478256 L193.338802,130.478256 C192.674783,130.478256 192.13649,129.939962 192.13649,129.275943 L192.13649,85.9699333 C192.13649,85.3059146 192.674783,84.7676211 193.338802,84.7676211 Z" id="Path-30" fill="#4A4A4A" fill-rule="nonzero" transform="translate(193.338802, 107.622938) rotate(-270.000000) translate(-193.338802, -107.622938) "></path>
                <path d="M189.731865,93.1853426 L189.731865,93.1853426 C190.395884,93.1853426 190.934178,93.7236361 190.934178,94.3876548 L190.934178,144.908855 C190.934178,145.572873 190.395884,146.111167 189.731865,146.111167 L189.731865,146.111167 C189.067847,146.111167 188.529553,145.572873 188.529553,144.908855 L188.529553,94.3876548 C188.529553,93.7236361 189.067847,93.1853426 189.731865,93.1853426 Z" id="Path-30" fill="#4A4A4A" fill-rule="nonzero" transform="translate(189.731865, 119.648255) rotate(-270.000000) translate(-189.731865, -119.648255) "></path>
                <g id="Group-7" transform="translate(170.000000, 70.000000)" fill="#4A4A4A" fill-rule="nonzero">
                    <path d="M7.70874403,0.337241366 L7.70874403,0.337241366 C8.37276269,0.337241366 8.91105617,0.875534846 8.91105617,1.53955351 L8.91105617,3.95948773 C8.91105617,4.62350639 8.37276269,5.16179987 7.70874403,5.16179987 L7.70874403,5.16179987 C7.04472537,5.16179987 6.50643189,4.62350639 6.50643189,3.95948773 L6.50643189,1.53955351 C6.50643189,0.875534846 7.04472537,0.337241366 7.70874403,0.337241366 Z" id="Path-30"></path>
                    <path d="M7.70874403,9.95749453 L7.70874403,9.95749453 C8.37276269,9.95749453 8.91105617,10.495788 8.91105617,11.1598067 L8.91105617,13.5797409 C8.91105617,14.2437596 8.37276269,14.782053 7.70874403,14.782053 L7.70874403,14.782053 C7.04472537,14.782053 6.50643189,14.2437596 6.50643189,13.5797409 L6.50643189,11.1598067 C6.50643189,10.495788 7.04472537,9.95749453 7.70874403,9.95749453 Z" id="Path-30"></path>
                    <path d="M14.9298315,7.5596472 L14.9298315,7.5596472 C14.9298315,8.22378709 14.3914397,8.76217885 13.7272999,8.76217885 L11.3086853,8.76217885 C10.6445454,8.76217885 10.1061537,8.22378709 10.1061537,7.5596472 L10.1061537,7.5596472 C10.1061537,6.89550731 10.6445454,6.35711555 11.3086853,6.35711555 L13.7272999,6.35711555 C14.3914397,6.35711555 14.9298315,6.89550731 14.9298315,7.5596472 Z" id="Path-30"></path>
                    <path d="M5.31133439,7.5596472 L5.31133439,7.5596472 C5.31133439,8.22378709 4.77294264,8.76217885 4.10880275,8.76217885 L1.6901882,8.76217885 C1.02604831,8.76217885 0.487656552,8.22378709 0.487656552,7.5596472 L0.487656552,7.5596472 C0.487656552,6.89550731 1.02604831,6.35711555 1.6901882,6.35711555 L4.10880275,6.35711555 C4.77294264,6.35711555 5.31133439,6.89550731 5.31133439,7.5596472 Z" id="Path-30"></path>
                </g>
                <g id="Group-7" opacity="0.56714221" transform="translate(0.000000, 110.000000)" fill="#4A4A4A" fill-rule="nonzero">
                    <path d="M7.70874403,0.337241366 L7.70874403,0.337241366 C8.37276269,0.337241366 8.91105617,0.875534846 8.91105617,1.53955351 L8.91105617,3.95948773 C8.91105617,4.62350639 8.37276269,5.16179987 7.70874403,5.16179987 L7.70874403,5.16179987 C7.04472537,5.16179987 6.50643189,4.62350639 6.50643189,3.95948773 L6.50643189,1.53955351 C6.50643189,0.875534846 7.04472537,0.337241366 7.70874403,0.337241366 Z" id="Path-30"></path>
                    <path d="M7.70874403,9.95749453 L7.70874403,9.95749453 C8.37276269,9.95749453 8.91105617,10.495788 8.91105617,11.1598067 L8.91105617,13.5797409 C8.91105617,14.2437596 8.37276269,14.782053 7.70874403,14.782053 L7.70874403,14.782053 C7.04472537,14.782053 6.50643189,14.2437596 6.50643189,13.5797409 L6.50643189,11.1598067 C6.50643189,10.495788 7.04472537,9.95749453 7.70874403,9.95749453 Z" id="Path-30"></path>
                    <path d="M14.9298315,7.5596472 L14.9298315,7.5596472 C14.9298315,8.22378709 14.3914397,8.76217885 13.7272999,8.76217885 L11.3086853,8.76217885 C10.6445454,8.76217885 10.1061537,8.22378709 10.1061537,7.5596472 L10.1061537,7.5596472 C10.1061537,6.89550731 10.6445454,6.35711555 11.3086853,6.35711555 L13.7272999,6.35711555 C14.3914397,6.35711555 14.9298315,6.89550731 14.9298315,7.5596472 Z" id="Path-30"></path>
                    <path d="M5.31133439,7.5596472 L5.31133439,7.5596472 C5.31133439,8.22378709 4.77294264,8.76217885 4.10880275,8.76217885 L1.6901882,8.76217885 C1.02604831,8.76217885 0.487656552,8.22378709 0.487656552,7.5596472 L0.487656552,7.5596472 C0.487656552,6.89550731 1.02604831,6.35711555 1.6901882,6.35711555 L4.10880275,6.35711555 C4.77294264,6.35711555 5.31133439,6.89550731 5.31133439,7.5596472 Z" id="Path-30"></path>
                </g>
                <g id="Group-7" opacity="0.284193841" transform="translate(70.000000, 0.000000)" fill="#4A4A4A" fill-rule="nonzero">
                    <path d="M7.70874403,0.337241366 L7.70874403,0.337241366 C8.37276269,0.337241366 8.91105617,0.875534846 8.91105617,1.53955351 L8.91105617,3.95948773 C8.91105617,4.62350639 8.37276269,5.16179987 7.70874403,5.16179987 L7.70874403,5.16179987 C7.04472537,5.16179987 6.50643189,4.62350639 6.50643189,3.95948773 L6.50643189,1.53955351 C6.50643189,0.875534846 7.04472537,0.337241366 7.70874403,0.337241366 Z" id="Path-30"></path>
                    <path d="M7.70874403,9.95749453 L7.70874403,9.95749453 C8.37276269,9.95749453 8.91105617,10.495788 8.91105617,11.1598067 L8.91105617,13.5797409 C8.91105617,14.2437596 8.37276269,14.782053 7.70874403,14.782053 L7.70874403,14.782053 C7.04472537,14.782053 6.50643189,14.2437596 6.50643189,13.5797409 L6.50643189,11.1598067 C6.50643189,10.495788 7.04472537,9.95749453 7.70874403,9.95749453 Z" id="Path-30"></path>
                    <path d="M14.9298315,7.5596472 L14.9298315,7.5596472 C14.9298315,8.22378709 14.3914397,8.76217885 13.7272999,8.76217885 L11.3086853,8.76217885 C10.6445454,8.76217885 10.1061537,8.22378709 10.1061537,7.5596472 L10.1061537,7.5596472 C10.1061537,6.89550731 10.6445454,6.35711555 11.3086853,6.35711555 L13.7272999,6.35711555 C14.3914397,6.35711555 14.9298315,6.89550731 14.9298315,7.5596472 Z" id="Path-30"></path>
                    <path d="M5.31133439,7.5596472 L5.31133439,7.5596472 C5.31133439,8.22378709 4.77294264,8.76217885 4.10880275,8.76217885 L1.6901882,8.76217885 C1.02604831,8.76217885 0.487656552,8.22378709 0.487656552,7.5596472 L0.487656552,7.5596472 C0.487656552,6.89550731 1.02604831,6.35711555 1.6901882,6.35711555 L4.10880275,6.35711555 C4.77294264,6.35711555 5.31133439,6.89550731 5.31133439,7.5596472 Z" id="Path-30"></path>
                </g>
                <g id="Group-7" opacity="0.595278533" transform="translate(191.000000, 239.000000)" fill="#4A4A4A" fill-rule="nonzero">
                    <path d="M7.70874403,0.337241366 L7.70874403,0.337241366 C8.37276269,0.337241366 8.91105617,0.875534846 8.91105617,1.53955351 L8.91105617,3.95948773 C8.91105617,4.62350639 8.37276269,5.16179987 7.70874403,5.16179987 L7.70874403,5.16179987 C7.04472537,5.16179987 6.50643189,4.62350639 6.50643189,3.95948773 L6.50643189,1.53955351 C6.50643189,0.875534846 7.04472537,0.337241366 7.70874403,0.337241366 Z" id="Path-30"></path>
                    <path d="M7.70874403,9.95749453 L7.70874403,9.95749453 C8.37276269,9.95749453 8.91105617,10.495788 8.91105617,11.1598067 L8.91105617,13.5797409 C8.91105617,14.2437596 8.37276269,14.782053 7.70874403,14.782053 L7.70874403,14.782053 C7.04472537,14.782053 6.50643189,14.2437596 6.50643189,13.5797409 L6.50643189,11.1598067 C6.50643189,10.495788 7.04472537,9.95749453 7.70874403,9.95749453 Z" id="Path-30"></path>
                    <path d="M14.9298315,7.5596472 L14.9298315,7.5596472 C14.9298315,8.22378709 14.3914397,8.76217885 13.7272999,8.76217885 L11.3086853,8.76217885 C10.6445454,8.76217885 10.1061537,8.22378709 10.1061537,7.5596472 L10.1061537,7.5596472 C10.1061537,6.89550731 10.6445454,6.35711555 11.3086853,6.35711555 L13.7272999,6.35711555 C14.3914397,6.35711555 14.9298315,6.89550731 14.9298315,7.5596472 Z" id="Path-30"></path>
                    <path d="M5.31133439,7.5596472 L5.31133439,7.5596472 C5.31133439,8.22378709 4.77294264,8.76217885 4.10880275,8.76217885 L1.6901882,8.76217885 C1.02604831,8.76217885 0.487656552,8.22378709 0.487656552,7.5596472 L0.487656552,7.5596472 C0.487656552,6.89550731 1.02604831,6.35711555 1.6901882,6.35711555 L4.10880275,6.35711555 C4.77294264,6.35711555 5.31133439,6.89550731 5.31133439,7.5596472 Z" id="Path-30"></path>
                </g>
                <path d="M220.999294,194.169431 L188.214888,194.169431 C161.279498,181.132615 170.176142,155.987953 178.141755,149.263231 C186.107368,142.538509 209.769021,136.179788 220.999294,160.881499 L220.999294,194.169431 Z" id="Path-11" fill="url(#linearGradient-3)" opacity="0.697690217" filter="url(#filter-4)" transform="translate(195.543000, 168.685981) scale(-1, 1) translate(-195.543000, -168.685981) "></path>
                <path d="M220.912589,185.966899 L188.128183,185.966899 C161.192793,172.930083 170.089437,147.785422 178.05505,141.0607 C186.020663,134.335977 209.682315,127.977256 220.912589,152.678967 L220.912589,185.966899 Z" id="Path-11" fill="url(#linearGradient-5)" transform="translate(195.456294, 160.483450) scale(-1, 1) translate(-195.456294, -160.483450) "></path>
                <g id="Group-5" transform="translate(184.000000, 149.000000)" fill="#FFFFFF" fill-rule="nonzero">
                    <path d="M11.5586736,0.927699781 L11.5586736,0.927699781 C12.5200739,0.927699781 13.2994428,1.70706868 13.2994428,2.66846895 L13.2994428,5.60313808 C13.2994428,6.56453834 12.5200739,7.34390724 11.5586736,7.34390724 L11.5586736,7.34390724 C10.5972734,7.34390724 9.81790448,6.56453834 9.81790448,5.60313808 L9.81790448,2.66846895 C9.81790448,1.70706868 10.5972734,0.927699781 11.5586736,0.927699781 Z" id="Path-31"></path>
                    <path d="M11.5586736,0.927699781 L11.5586736,0.927699781 C12.5200739,0.927699781 13.2994428,1.70706868 13.2994428,2.66846895 L13.2994428,19.5318339 C13.2994428,20.4932342 12.5200739,21.2726031 11.5586736,21.2726031 L11.5586736,21.2726031 C10.5972734,21.2726031 9.81790448,20.4932342 9.81790448,19.5318339 L9.81790448,2.66846895 C9.81790448,1.70706868 10.5972734,0.927699781 11.5586736,0.927699781 Z" id="Path-31"></path>
                    <path d="M21.7292684,11.1001514 L21.7292684,11.1001514 C21.7292684,12.0617272 20.9497573,12.8412384 19.9881815,12.8412384 L3.12916583,12.8412384 C2.16759004,12.8412384 1.38807885,12.0617272 1.38807885,11.1001514 L1.38807885,11.1001514 C1.38807885,10.1385756 2.16759004,9.35906445 3.12916583,9.35906445 L19.9881815,9.35906445 C20.9497573,9.35906445 21.7292684,10.1385756 21.7292684,11.1001514 Z" id="Path-31"></path>
                    <path d="M7.80311511,11.1001514 L7.80311511,11.1001514 C7.80311511,12.0617272 7.02360392,12.8412384 6.06202813,12.8412384 L3.12916583,12.8412384 C2.16759004,12.8412384 1.38807885,12.0617272 1.38807885,11.1001514 L1.38807885,11.1001514 C1.38807885,10.1385756 2.16759004,9.35906445 3.12916583,9.35906445 L6.06202813,9.35906445 C7.02360392,9.35906445 7.80311511,10.1385756 7.80311511,11.1001514 Z" id="Path-31"></path>
                </g>
            </g>
        </g>
    </g>
</svg>